<svg width="24" height="24" viewBox="0 0 24 24" fill="none" xmlns="http://www.w3.org/2000/svg">
<path d="M15.2201 6.54993H5.78012C5.50012 6.54993 5.24012 6.55993 5.00012 6.56993C2.63012 6.70993 2.00012 7.57993 2.00012 10.2799V10.8599C2.00012 11.4099 2.45012 11.8599 3.00012 11.8599H18.0001C18.5501 11.8599 19.0001 11.4099 19.0001 10.8599V10.2799C19.0001 7.29993 18.2401 6.54993 15.2201 6.54993Z" fill="#C8A977"/>
<path d="M3.00012 13.3599C2.45012 13.3599 2.00012 13.8099 2.00012 14.3599V17.2699C2.00012 20.2499 2.76012 20.9999 5.78012 20.9999H15.2201C18.1901 20.9999 18.9701 20.2799 19.0001 17.4299V14.3599C19.0001 13.8099 18.5501 13.3599 18.0001 13.3599H3.00012ZM6.96012 18.5599H5.25012C4.84012 18.5599 4.50012 18.2199 4.50012 17.8099C4.50012 17.3999 4.84012 17.0599 5.25012 17.0599H6.97012C7.38012 17.0599 7.72012 17.3999 7.72012 17.8099C7.72012 18.2199 7.38012 18.5599 6.96012 18.5599ZM12.5501 18.5599H9.11012C8.70012 18.5599 8.36012 18.2199 8.36012 17.8099C8.36012 17.3999 8.70012 17.0599 9.11012 17.0599H12.5501C12.9601 17.0599 13.3001 17.3999 13.3001 17.8099C13.3001 18.2199 12.9701 18.5599 12.5501 18.5599Z" fill="#C8A977"/>
<path d="M22.0001 13.3299V8.08991C22.0001 4.95991 20.2101 3.59991 17.5101 3.59991H8.58011C7.82011 3.59991 7.14011 3.70991 6.54011 3.93991C6.07011 4.10991 5.65011 4.35991 5.31011 4.68991C5.13011 4.85991 5.27011 5.13991 5.53011 5.13991H16.4001C18.6501 5.13991 20.4701 6.95991 20.4701 9.20991V16.3799C20.4701 16.6299 20.7401 16.7699 20.9201 16.5899C21.6101 15.8599 22.0001 14.7899 22.0001 13.3299Z" fill="#C8A977"/>
</svg>
