<svg width="21" height="21" viewBox="0 0 21 21" fill="none" xmlns="http://www.w3.org/2000/svg">
<path d="M11.9246 8.25818V10.6657H14.0831C14.2492 10.6657 14.3322 10.8318 14.3322 10.9978L14.0001 12.5752C14.0001 12.6582 13.8341 12.7412 13.751 12.7412H11.9246V18.8016H9.43406V12.8242H8.02274C7.8567 12.8242 7.77368 12.7412 7.77368 12.5752V10.9978C7.77368 10.8318 7.8567 10.7487 8.02274 10.7487H9.43406V8.00912C9.43406 6.5978 10.5133 5.51855 11.9246 5.51855H14.1661C14.3322 5.51855 14.4152 5.60157 14.4152 5.76761V7.76006C14.4152 7.9261 14.3322 8.00912 14.1661 8.00912H12.1737C12.0076 8.00912 11.9246 8.09214 11.9246 8.25818Z" fill="white"/>
<path d="M12.7549 18.8015H7.77372C3.62278 18.8015 1.9624 17.1411 1.9624 12.9902V8.00907C1.9624 3.85813 3.62278 2.19775 7.77372 2.19775H12.7549C16.9058 2.19775 18.5662 3.85813 18.5662 8.00907V12.9902C18.5662 17.1411 16.9058 18.8015 12.7549 18.8015Z" stroke="white" stroke-width="1.24528" stroke-linecap="round" stroke-linejoin="round"/>
</svg>
