<svg width="24" height="25" viewBox="0 0 24 25" fill="none" xmlns="http://www.w3.org/2000/svg">
<path d="M22 12.362C21.9975 14.6776 21.1923 16.9207 19.7215 18.7092C18.2508 20.4977 16.2055 21.721 13.934 22.1707C11.6625 22.6204 9.30532 22.2687 7.26406 21.1754C5.2228 20.0822 3.62368 18.3151 2.73913 16.1751C1.85457 14.0352 1.73929 11.6547 2.41291 9.43927C3.08654 7.22384 4.5074 5.31047 6.43347 4.0251C8.35954 2.73973 10.6717 2.16187 12.976 2.38996C15.2803 2.61805 17.4343 3.63797 19.071 5.276C20.9468 7.15718 22.0001 9.70541 22 12.362Z" stroke="white" stroke-width="1.5" stroke-linecap="round" stroke-linejoin="round"/>
<path d="M8.00099 3.343H9.00099C7.0511 9.19724 7.0511 15.5258 9.00099 21.38H8.00099" stroke="white" stroke-width="1.5" stroke-linecap="round" stroke-linejoin="round"/>
<path d="M15 3.343C16.9499 9.19724 16.9499 15.5258 15 21.38" stroke="white" stroke-width="1.5" stroke-linecap="round" stroke-linejoin="round"/>
<path d="M3 16.368V15.368C8.84091 17.322 15.1591 17.322 21 15.368V16.368" stroke="white" stroke-width="1.5" stroke-linecap="round" stroke-linejoin="round"/>
<path d="M3 9.357C8.84091 7.40297 15.1591 7.40297 21 9.357" stroke="white" stroke-width="1.5" stroke-linecap="round" stroke-linejoin="round"/>
</svg>
