<svg width="21" height="21" viewBox="0 0 21 21" fill="none" xmlns="http://www.w3.org/2000/svg">
<path d="M7.90568 18.8015H12.8868C17.0378 18.8015 18.6981 17.1411 18.6981 12.9902V8.00907C18.6981 3.85813 17.0378 2.19775 12.8868 2.19775H7.90568C3.75474 2.19775 2.09436 3.85813 2.09436 8.00907V12.9902C2.09436 17.1411 3.75474 18.8015 7.90568 18.8015Z" stroke="white" stroke-width="1.24528" stroke-linecap="round" stroke-linejoin="round"/>
<path d="M10.3963 13.4056C12.001 13.4056 13.3019 12.1047 13.3019 10.4999C13.3019 8.89515 12.001 7.59424 10.3963 7.59424C8.79151 7.59424 7.4906 8.89515 7.4906 10.4999C7.4906 12.1047 8.79151 13.4056 10.3963 13.4056Z" stroke="white" stroke-width="1.24528" stroke-linecap="round" stroke-linejoin="round"/>
<path d="M15.0752 6.34869H15.0848" stroke="white" stroke-width="1.66038" stroke-linecap="round" stroke-linejoin="round"/>
</svg>
