<svg width="21" height="21" viewBox="0 0 21 21" fill="none" xmlns="http://www.w3.org/2000/svg">
<g clip-path="url(#clip0_179_17735)">
<path d="M2.93847 1.21289C1.58579 1.21289 0.60376 2.14599 0.60376 3.43069C0.60376 4.71495 1.56631 5.64719 2.8917 5.64719C3.5793 5.64719 4.17164 5.4242 4.60506 5.00246C5.02074 4.59761 5.24979 4.03948 5.24936 3.42073C5.21905 2.12088 4.26863 1.21289 2.93847 1.21289ZM4.00147 4.38198C3.73301 4.64307 3.34895 4.7812 2.8917 4.7812C2.05472 4.7812 1.46975 4.2261 1.46975 3.43069C1.46975 2.62229 2.05992 2.07888 2.93847 2.07888C3.79709 2.07888 4.36432 2.61363 4.3838 3.43112C4.38337 3.80436 4.24784 4.14167 4.00147 4.38198Z" fill="white"/>
<path d="M1.01904 20.6867H4.9108V6.37842H1.01904V20.6867ZM1.88503 7.24441H4.04481V19.8203H1.88503V7.24441Z" fill="white"/>
<path d="M15.1731 6.37842C13.3684 6.37842 12.2634 7.0015 11.6234 7.58734L11.5018 6.37842H7.09863V20.6863H11.4108V13.1665C11.4108 12.8426 11.542 12.1702 11.6243 11.9926C12.1452 10.8707 12.8479 10.8707 13.9122 10.8707C15.138 10.8707 16.1738 12.0203 16.1738 13.3808V20.6872H20.5037V12.6031C20.5037 8.32603 17.7403 6.37842 15.1731 6.37842ZM19.6377 19.8207H17.0398V13.3804C17.0398 11.5501 15.6074 10.0043 13.9122 10.0043C12.8246 10.0043 11.5923 10.0043 10.8384 11.628C10.683 11.9636 10.5444 12.7677 10.5444 13.1665V19.8207H7.96462V7.24441H10.7185L10.8951 8.99544H11.6048L11.7317 8.79063C12.0205 8.32559 12.9337 7.24397 15.1731 7.24397C17.3234 7.24397 19.6377 8.92053 19.6377 12.6019V19.8207Z" fill="white"/>
</g>
<defs>
<clipPath id="clip0_179_17735">
<rect width="19.9" height="19.9" fill="white" transform="translate(0.60376 1)"/>
</clipPath>
</defs>
</svg>
