<svg width="118" height="49" viewBox="0 0 118 49" fill="none" xmlns="http://www.w3.org/2000/svg">
<g clip-path="url(#clip0_6_2)">
<path d="M34.0523 37.8162C34.7799 37.4834 35.3923 36.9422 35.8122 36.2611C36.232 35.58 36.4403 34.7897 36.4108 33.9901C36.4108 30.5638 33.8124 28.8506 30.8715 28.8506H18.3082C18.9464 29.1809 19.4943 29.662 19.9043 30.2522C20.3143 30.8423 20.574 31.5236 20.6609 32.237V45.1486C20.7023 45.8577 20.9811 46.5323 21.4524 47.0637C21.9237 47.5951 22.5602 47.9524 23.2593 48.0782H31.5967C34.966 48.0782 37.5015 45.9424 37.5015 42.516C37.5425 41.4581 37.2239 40.4175 36.5975 39.5639C35.971 38.7104 35.0739 38.0943 34.0523 37.8162ZM24.1844 32.2198H30.466C32.0307 32.2198 32.8531 33.2249 32.8531 34.3613C32.8531 35.4977 32.0307 36.5314 30.466 36.5314H24.1844V32.2198ZM31.197 44.6918H24.1787V39.9063H31.197C32.7845 39.9063 33.9495 40.9456 33.9495 42.3219C33.9495 43.6981 32.7617 44.6918 31.197 44.6918Z" fill="white"/>
<path d="M55.7012 28.8506H51.2697L44.8282 36.5314H43.5147V28.8506L37.7014 28.8791C38.2686 29.1725 38.7662 29.5844 39.1603 30.0869C39.5544 30.5894 39.8359 31.1707 39.9856 31.7915V48.0553H43.5376V39.9063H45.8846L51.4753 48.0667H56.0038L48.3288 37.3308L55.7012 28.8506Z" fill="white"/>
<path d="M16.8463 45.2L16.7949 33.0936C16.3894 30.2383 14.0081 28.8221 11.3412 28.8221H2.644V32.2027H10.9758C12.392 32.2027 13.1915 33.0364 13.3285 34.0358V36.5428H7.04688C4.76264 36.617 0.00570244 36.7997 0.0456766 42.5046C0.0456766 45.931 2.58689 48.0725 5.94473 48.0725H19.1419C18.5766 47.785 18.0793 47.3799 17.6834 46.8845C17.2875 46.3891 17.002 45.8148 16.8463 45.2ZM13.3 44.6975H6.29878C4.71123 44.6975 3.54628 43.6582 3.54628 42.3105C3.54628 40.9628 4.68839 39.8949 6.29878 39.8949H13.3V44.6975Z" fill="white"/>
<path d="M14.8819 24.442L13.3343 22.8944L11.5812 24.6419L13.3343 26.395L14.8819 24.8475L16.4295 26.395L18.1769 24.6419L16.4295 22.8944L14.8819 24.442ZM47.2324 21.838C47.9646 21.5259 48.5842 20.998 49.0084 20.3247V7.35589L47.2324 9.06907V21.838ZM46.2159 7.09891L45.525 7.7899V9.16043L49.0084 5.93968V4.50059C48.9628 4.54057 47.4323 5.92823 47.221 6.09384C47.1002 6.13944 46.9709 6.15804 46.8421 6.14835C46.7133 6.13866 46.5882 6.10093 46.4755 6.03776C46.3629 5.97459 46.2654 5.88752 46.19 5.78269C46.1146 5.67786 46.063 5.55781 46.0389 5.43094C46.0148 5.30406 46.0187 5.17345 46.0505 5.04827C46.0822 4.92308 46.1409 4.80635 46.2226 4.70627C46.3042 4.60619 46.4067 4.52519 46.523 4.46895C46.6392 4.4127 46.7664 4.38255 46.8955 4.38066C47.0937 4.3925 47.2877 4.44294 47.4666 4.52914C47.4666 4.52914 48.3174 3.80963 48.306 3.80392C45.8619 1.7995 43.5834 6.00819 46.2159 7.09891ZM53.9824 2.71889V17.9548C54.7316 17.6398 55.3671 17.1039 55.804 16.4186V0.999996L53.9824 2.71889ZM52.4691 4.01521L50.6131 5.84829V18.8513C50.5103 20.0448 50.1277 22.3348 47.952 23.1971C45.5764 24.145 42.447 23.5569 41.7503 23.0201C41.8645 23.2371 44.0345 27.3658 48.4374 25.6812C52.5262 24.1108 52.4633 18.7885 52.4633 18.4287C52.4805 18.3831 52.4691 4.01521 52.4691 4.01521ZM44.2743 18.4459C44.2743 18.4459 45.4507 16.1959 45.4564 15.6648C45.4564 12.9123 42.7725 11.3704 40.1684 11.3133C38.204 11.2791 36.8677 11.6674 35.817 12.4212C34.7687 13.5406 33.8137 14.7438 32.9617 16.0189L32.8817 16.1559C32.8817 16.1559 35.8855 14.2315 38.7636 14.083C39.4032 14.0487 41.3106 14.0145 42.4584 15.3279C42.9616 15.952 43.2086 16.7441 43.1494 17.5436C43.1208 18.7999 39.9971 20.1933 38.5809 20.2219C38.9091 19.5245 39.1452 18.7873 39.2833 18.029C39.2833 17.121 38.5809 15.7847 37.3988 15.7448C35.303 15.7048 33.607 19.7422 33.2643 20.8101V20.8615V20.9128C33.4604 21.5126 33.8824 22.0123 34.4407 22.3062C32.038 23.2236 29.4602 23.5904 26.897 23.3798C23.7847 23.2199 22.4827 22.5461 20.3184 20.9757C17.4631 18.8913 16.7093 14.2029 16.6408 10.3197C16.6408 10.2569 16.6865 1.18274 16.6865 1.18274L14.762 2.97587V10.2112C12.9974 11.319 11.0958 12.6439 10.4676 13.1236C9.29315 13.9863 8.46498 15.2397 8.13198 16.6584C7.66943 18.7999 9.56534 18.6971 10.4162 20.1305C11.1243 21.2726 8.04061 23.6596 5.71069 23.6139C-0.759419 23.494 3.11237 15.5106 3.11237 15.5106C1.86233 16.6895 0.926082 18.1616 0.388416 19.7936C-0.456753 22.1749 0.302757 23.8767 1.53054 24.9331C3.33508 26.435 5.91056 26.5721 8.45748 25.31C11.3128 23.8995 13.1744 21.7238 13.1859 20.1705C13.1859 18.326 12.0437 17.6521 10.9016 16.6642C10.4448 16.2701 10.4505 15.9446 10.8445 15.2479C11.2385 14.5512 13.8997 13.0665 14.7449 12.6039C14.9733 19.9478 19.4675 26.9375 28.2675 26.0924C31.5797 25.7783 35.0289 23.9794 36.4051 23.2028C38.0315 23.2163 39.6293 22.7761 41.0194 21.9318C42.4094 21.0875 43.5366 19.8724 44.2743 18.423V18.4459ZM35.1031 18.3945C35.1031 18.3945 37.3017 16.6813 37.7186 20.1077C37.7186 20.0905 35.1545 20.5759 35.1031 18.3716V18.3945Z" fill="white"/>
<path d="M75.7397 14.1115V6.78483H83.0606H87.2408C88.7427 6.75628 89.7649 7.86415 90.7757 8.82924L92.386 10.4453L104.498 22.5575L108.576 18.4858L96.4577 6.36797L95.7267 5.64272C93.157 3.06153 91.1297 1.01713 88.2002 1.01713L75.0658 1.04569H75.0087C73.8364 1.03884 72.6989 1.44296 71.7936 2.18781C71.7735 2.20162 71.7544 2.2169 71.7365 2.23351L71.4738 2.47906C71.3882 2.56472 71.3082 2.65606 71.234 2.74172C71.2169 2.76125 71.2016 2.7823 71.1883 2.80457C70.4426 3.70706 70.0383 4.84321 70.0462 6.01392V6.07673L70.0176 19.2396C70.0165 20.2679 70.2758 21.2797 70.7714 22.1806L75.7853 17.1724L75.7397 14.1115Z" fill="white"/>
<path d="M111.254 34.9495V42.2705H103.933H99.7242C98.2223 42.2705 97.2001 41.1855 96.1893 40.2147L94.5846 38.6271L82.4781 26.5035L78.4065 30.5809L91.2496 43.4297C93.8137 46.0166 95.247 47.9982 98.7762 48.061H111.911H111.968C113.14 48.0689 114.278 47.6646 115.183 46.9189L115.24 46.8675L115.508 46.6334C115.594 46.5477 115.668 46.4564 115.748 46.3707C115.765 46.3512 115.78 46.3302 115.794 46.3079C116.54 45.4054 116.944 44.2692 116.936 43.0985V43.0357L116.964 29.9013C116.961 28.858 116.694 27.8325 116.188 26.9204L111.197 31.9115L111.254 34.9495Z" fill="white"/>
<path d="M115.246 2.21636L115.188 2.16495C114.283 1.4201 113.146 1.016 111.973 1.02284H111.916L98.7819 0.994281C97.7385 0.996604 96.7128 1.26383 95.801 1.77091L100.792 6.76201H103.927H111.242V14.083V18.2574C111.242 19.765 110.157 20.7872 109.192 21.7923L107.582 23.4027L95.4583 35.5263L99.53 39.5979L112.385 26.7719C114.971 24.2079 116.924 22.7745 117.01 19.2511V6.11671V6.05386C117.017 4.88161 116.613 3.74405 115.868 2.83883L115.817 2.78742C115.745 2.69276 115.667 2.6031 115.582 2.51904C115.428 2.35914 115.331 2.28488 115.246 2.21636Z" fill="#C8A977"/>
<path d="M75.7396 30.7693C75.7396 29.2617 76.8247 28.2395 77.7897 27.2288L79.4001 25.6241L91.518 13.5062L87.4464 9.43456L75.3285 21.5467L74.5975 22.2834C72.0106 24.8475 69.9662 26.8519 69.9662 29.8043L69.9948 42.9386V42.9957C69.9893 44.166 70.3933 45.3014 71.1369 46.2051L71.1883 46.2679C71.2682 46.3536 71.3425 46.4449 71.4282 46.5306C71.4375 46.5282 71.4473 46.5282 71.4567 46.5306C71.5402 46.6149 71.6279 46.695 71.7194 46.7705L71.7765 46.8218C72.68 47.5658 73.8155 47.9699 74.9858 47.9639H75.0487H88.183C89.2123 48.0056 90.2354 47.7876 91.1583 47.3301L86.1501 42.3162H83.072H75.7511V34.9952L75.7396 30.7693Z" fill="#C8A977"/>
</g>
<defs>
<clipPath id="clip0_6_2">
<rect width="118" height="49" fill="white"/>
</clipPath>
</defs>
</svg>
