<svg width="24" height="24" viewBox="0 0 24 24" fill="none" xmlns="http://www.w3.org/2000/svg">
<path d="M19.1708 6.64002C18.7408 4.47002 17.1308 3.52002 14.8908 3.52002H6.11079C3.47078 3.52002 1.71078 4.84002 1.71078 7.92002V13.07C1.71078 15.29 2.62078 16.59 4.12078 17.15C4.34078 17.23 4.58078 17.3 4.83078 17.34C5.23078 17.43 5.66078 17.47 6.11079 17.47H14.9008C17.5408 17.47 19.3008 16.15 19.3008 13.07V7.92002C19.3008 7.45002 19.2608 7.03002 19.1708 6.64002ZM5.53079 12C5.53079 12.41 5.19079 12.75 4.78079 12.75C4.37078 12.75 4.03079 12.41 4.03079 12V9.00002C4.03079 8.59002 4.37078 8.25002 4.78079 8.25002C5.19079 8.25002 5.53079 8.59002 5.53079 9.00002V12ZM10.5008 13.14C9.04078 13.14 7.86079 11.96 7.86079 10.5C7.86079 9.04002 9.04078 7.86002 10.5008 7.86002C11.9608 7.86002 13.1408 9.04002 13.1408 10.5C13.1408 11.96 11.9608 13.14 10.5008 13.14ZM16.9608 12C16.9608 12.41 16.6208 12.75 16.2108 12.75C15.8008 12.75 15.4608 12.41 15.4608 12V9.00002C15.4608 8.59002 15.8008 8.25002 16.2108 8.25002C16.6208 8.25002 16.9608 8.59002 16.9608 9.00002V12Z" fill="#C8A977"/>
<path d="M22.3008 10.92V16.07C22.3008 19.15 20.5408 20.48 17.8908 20.48H9.11081C8.36081 20.48 7.69081 20.37 7.11081 20.15C6.64081 19.98 6.23081 19.73 5.90081 19.41C5.72081 19.24 5.86081 18.97 6.11081 18.97H14.8908C18.5908 18.97 20.7908 16.77 20.7908 13.08V7.91997C20.7908 7.67997 21.0608 7.52997 21.2308 7.70997C21.9108 8.42997 22.3008 9.47997 22.3008 10.92Z" fill="#C8A977"/>
</svg>
