<svg width="24" height="24" viewBox="0 0 24 24" fill="none" xmlns="http://www.w3.org/2000/svg">
<path d="M9.00079 2.00006C6.38079 2.00006 4.25079 4.13006 4.25079 6.75006C4.25079 9.32006 6.26079 11.4001 8.88079 11.4901C8.96079 11.4801 9.04079 11.4801 9.10079 11.4901C9.12079 11.4901 9.13079 11.4901 9.15079 11.4901C9.16079 11.4901 9.16079 11.4901 9.17079 11.4901C11.7308 11.4001 13.7408 9.32006 13.7508 6.75006C13.7508 4.13006 11.6208 2.00006 9.00079 2.00006Z" fill="#C8A977"/>
<path d="M14.0808 14.1501C11.2908 12.2901 6.74078 12.2901 3.93078 14.1501C2.66078 15.0001 1.96078 16.1501 1.96078 17.3801C1.96078 18.6101 2.66078 19.7501 3.92078 20.5901C5.32079 21.5301 7.16078 22.0001 9.00078 22.0001C10.8408 22.0001 12.6808 21.5301 14.0808 20.5901C15.3408 19.7401 16.0408 18.6001 16.0408 17.3601C16.0308 16.1301 15.3408 14.9901 14.0808 14.1501Z" fill="#C8A977"/>
<path d="M19.9908 7.34004C20.1508 9.28004 18.7708 10.98 16.8608 11.21C16.8508 11.21 16.8508 11.21 16.8408 11.21H16.8108C16.7508 11.21 16.6908 11.21 16.6408 11.23C15.6708 11.28 14.7808 10.97 14.1108 10.4C15.1408 9.48004 15.7308 8.10004 15.6108 6.60004C15.5408 5.79004 15.2608 5.05004 14.8408 4.42004C15.2208 4.23004 15.6608 4.11004 16.1108 4.07004C18.0708 3.90004 19.8208 5.36004 19.9908 7.34004Z" fill="#C8A977"/>
<path d="M21.9908 16.5901C21.9108 17.5601 21.2908 18.4001 20.2508 18.9701C19.2508 19.5201 17.9908 19.7801 16.7408 19.7501C17.4608 19.1001 17.8808 18.2901 17.9608 17.4301C18.0608 16.1901 17.4708 15.0001 16.2908 14.0501C15.6208 13.5201 14.8408 13.1001 13.9908 12.7901C16.2008 12.1501 18.9808 12.5801 20.6908 13.9601C21.6108 14.7001 22.0808 15.6301 21.9908 16.5901Z" fill="#C8A977"/>
</svg>
