<svg width="21" height="21" viewBox="0 0 21 21" fill="none" xmlns="http://www.w3.org/2000/svg">
<path d="M18 9.823C18 11.5041 17.5015 13.1475 16.5675 14.5453C15.6335 15.9432 14.306 17.0326 12.7528 17.676C11.1996 18.3193 9.49057 18.4877 7.84174 18.1597C6.1929 17.8317 4.67834 17.0222 3.4896 15.8334C2.30085 14.6447 1.4913 13.1301 1.16333 11.4813C0.835355 9.83243 1.00368 8.12336 1.64703 6.57019C2.29037 5.01702 3.37984 3.6895 4.77766 2.75551C6.17547 1.82152 7.81886 1.323 9.5 1.323C11.7543 1.323 13.9164 2.21853 15.5104 3.81259C17.1045 5.40665 18 7.56866 18 9.823Z" stroke="white" stroke-width="2" stroke-linecap="round" stroke-linejoin="round"/>
<path d="M19.1211 19.265L15.8781 16.201" stroke="white" stroke-width="2" stroke-linecap="round"/>
</svg>
